<svg width="24" height="24" viewBox="0 0 24 24" fill="none" xmlns="http://www.w3.org/2000/svg">
<path d="M11 6H7.4C6.6268 6 6 6.6268 6 7.4V20.6C6 21.3732 6.6268 22 7.4 22H11C11.7732 22 12.4 21.3732 12.4 20.6V7.4C12.4 6.6268 11.7732 6 11 6Z" stroke="#FFD717" stroke-width="1.4" stroke-linecap="round" stroke-linejoin="round"/>
<path d="M20 6H17.4C16.6268 6 16 6.6268 16 7.4V13.4C16 14.1732 16.6268 14.8 17.4 14.8H20C20.7732 14.8 21.4 14.1732 21.4 13.4V7.4C21.4 6.6268 20.7732 6 20 6Z" stroke="#FFD717" stroke-width="1.4" stroke-linecap="round" stroke-linejoin="round"/>
<path d="M3 3V3.01" stroke="#FFD717" stroke-width="1.8" stroke-linecap="round" stroke-linejoin="round"/>
<path d="M7 3V3.01" stroke="#FFD717" stroke-width="1.8" stroke-linecap="round" stroke-linejoin="round"/>
<path d="M11 3V3.01" stroke="#FFD717" stroke-width="1.8" stroke-linecap="round" stroke-linejoin="round"/>
<path d="M15 3V3.01" stroke="#FFD717" stroke-width="1.8" stroke-linecap="round" stroke-linejoin="round"/>
<path d="M3 7V7.01" stroke="#FFD717" stroke-width="1.8" stroke-linecap="round" stroke-linejoin="round"/>
<path d="M3 11V11.01" stroke="#FFD717" stroke-width="1.8" stroke-linecap="round" stroke-linejoin="round"/>
<path d="M3 15V15.01" stroke="#FFD717" stroke-width="1.8" stroke-linecap="round" stroke-linejoin="round"/>
</svg>
